<?xml version="1.0" encoding="UTF-8"?>
<svg version="1.1" xmlns="http://www.w3.org/2000/svg" width="1024" height="1024">
<path d="M0 0 C337.92 0 675.84 0 1024 0 C1024 337.92 1024 675.84 1024 1024 C686.08 1024 348.16 1024 0 1024 C0 686.08 0 348.16 0 0 Z " fill="#FEFEFE" transform="translate(0,0)"/>
<path d="M0 0 C237.42829593 0 237.42829593 0 278.625 18.3125 C280.18734375 18.98442383 280.18734375 18.98442383 281.78125 19.66992188 C293.1627467 24.68657909 303.09551582 31.53910389 313 39 C313.81082031 39.60328125 314.62164063 40.2065625 315.45703125 40.828125 C327.53031207 50.1122634 337.98052584 61.02039962 346 74 C346 74.66 346 75.32 346 76 C346.66 76 347.32 76 348 76 C365.0173705 104.41987255 373.47293177 136.10655958 373.3125 169.1875 C373.31100952 169.95246796 373.30951904 170.71743591 373.3079834 171.50558472 C373.26580892 183.58149187 372.47548399 195.15608951 370 207 C369.71733707 208.51015289 369.43610088 210.02057348 369.15625 211.53125 C363.70317484 239.59588735 350.5567588 264.49467158 332 286 C331.31421875 286.87140625 330.6284375 287.7428125 329.921875 288.640625 C315.86963827 305.89174489 293.13403274 317.76232997 273 326 C271.52853516 326.63228516 271.52853516 326.63228516 270.02734375 327.27734375 C230.39856023 343.61964842 186.78155315 341.53176772 144.8125 341.25 C118.6703125 341.12625 118.6703125 341.12625 92 341 C92 409.97 92 478.94 92 550 C61.64 550 31.28 550 0 550 C0 368.5 0 187 0 0 Z " fill="#000000" transform="translate(532,236)"/>
<path d="M0 0 C122.76 0 245.52 0 372 0 C372 27.39 372 54.78 372 83 C325.14 83 278.28 83 230 83 C230 237.11 230 391.22 230 550 C199.97 550 169.94 550 139 550 C139 395.89 139 241.78 139 83 C93.13 83 47.26 83 0 83 C0 55.61 0 28.22 0 0 Z " fill="#000000" transform="translate(113,236)"/>
<path d="M0 0 C18.170625 -0.12375 36.34125 -0.2475 55.0625 -0.375 C60.75250244 -0.42962402 66.44250488 -0.48424805 72.30493164 -0.54052734 C79.37390137 -0.56762695 79.37390137 -0.56762695 82.70652771 -0.57266235 C84.98308905 -0.58174167 87.25962571 -0.60255687 89.53599548 -0.63345337 C115.44881452 -0.96688894 136.7968939 3.35029887 157.5234375 19.5546875 C158.01070312 20.03164063 158.49796875 20.50859375 159 21 C159 21.66 159 22.32 159 23 C159.66 23 160.32 23 161 23 C177.91078679 43.56059689 183.12199215 65.79120727 183 92 C182.99726074 92.7636084 182.99452148 93.5272168 182.99169922 94.31396484 C182.80681179 109.01419587 179.30465501 122.74168138 173 136 C172.37351562 137.36705078 172.37351562 137.36705078 171.734375 138.76171875 C163.00211684 156.35169855 146.16115509 169.49676863 127.74671364 175.76729393 C112.87028895 180.21752283 98.52971281 180.66863909 83.10546875 180.48828125 C80.9624497 180.48090364 78.81942153 180.47581894 76.6763916 180.47302246 C68.84662111 180.44711137 61.01704516 180.37730747 53.1875 180.3125 C35.635625 180.209375 18.08375 180.10625 0 180 C0 120.6 0 61.2 0 0 Z " fill="#FEFEFE" transform="translate(624,317)"/>
</svg>
